<?xml version="1.0" encoding="UTF-8" standalone="no"?>
<!-- Generator: Adobe Illustrator 17.0.0, SVG Export Plug-In . SVG Version: 6.00 Build 0)  -->

<svg
   xmlns:dc="http://purl.org/dc/elements/1.1/"
   xmlns:cc="http://creativecommons.org/ns#"
   xmlns:rdf="http://www.w3.org/1999/02/22-rdf-syntax-ns#"
   xmlns:svg="http://www.w3.org/2000/svg"
   xmlns="http://www.w3.org/2000/svg"
   xmlns:sodipodi="http://sodipodi.sourceforge.net/DTD/sodipodi-0.dtd"
   xmlns:inkscape="http://www.inkscape.org/namespaces/inkscape"
   version="1.1"
   id="Layer_2"
   x="0px"
   y="0px"
   width="128"
   height="128"
   viewBox="0 0 12.8 12.8"
   xml:space="preserve"
   inkscape:version="0.91 r13725"
   sodipodi:docname="ana.svg"><metadata
     id="metadata31"><rdf:RDF><cc:Work
         rdf:about=""><dc:format>image/svg+xml</dc:format><dc:type
           rdf:resource="http://purl.org/dc/dcmitype/StillImage" /><dc:title></dc:title></cc:Work></rdf:RDF></metadata><defs
     id="defs29" /><sodipodi:namedview
     pagecolor="#ffffff"
     bordercolor="#666666"
     borderopacity="1"
     objecttolerance="10"
     gridtolerance="10"
     guidetolerance="10"
     inkscape:pageopacity="0"
     inkscape:pageshadow="2"
     inkscape:window-width="1920"
     inkscape:window-height="1017"
     id="namedview27"
     showgrid="false"
     inkscape:zoom="3.3941125"
     inkscape:cx="155.80153"
     inkscape:cy="56.225711"
     inkscape:window-x="1912"
     inkscape:window-y="-8"
     inkscape:window-maximized="1"
     inkscape:current-layer="g3" /><g
     id="g3"
     transform="matrix(0.62852934,0,0,0.62852934,-1.1426663,1.371451)"><g
       id="g5"><path
         style="fill:#a4a9ad"
         d="m 14.162,2.26 c -5.481,0 -9.844,3.001 -9.844,3.001 0,0 5.379,-0.433 5.379,0.681 0,0.976 -4.258,2.565 -4.258,2.565 0,0 3.358,0.088 3.358,0.899 0,1.369 -6.979,3.212 -6.979,3.212 0,0 2.445,1.123 6.265,1.123 6.841,0 14.1,-3.879 14.1,-6.902 0,-2.784 -4.084,-4.579 -8.021,-4.579 z"
         id="path7"
         inkscape:connector-curvature="0" /></g><path
       d="m 14.162,2.505 c -3.958,0 -7.355,1.608 -8.866,2.452 0,0 4.646,-0.327 4.646,0.984 0,0.817 -1.997,1.799 -3.392,2.386 1.146,0.109 2.492,0.385 2.492,1.078 0,1.277 -4.277,2.643 -6.433,3.249 0.973,0.325 2.918,0.842 5.474,0.842 6.874,0 13.856,-3.874 13.856,-6.658 C 21.938,4.161 17.901,2.505 14.162,2.505 Z"
       id="path13"
       inkscape:connector-curvature="0" /><path
       style="fill:#ff4c00"
       d="m 6.802,12.601 -0.807,0.214 c 0,0 0.722,0.08 1.858,0.08 8.155,0 13.57,-4.962 13.57,-5.752 0,-0.087 -0.028,-0.16 -0.028,-0.16 -2.89,3.438 -8.63,5.809 -14.593,5.618 z"
       id="path15"
       inkscape:connector-curvature="0" /><g
       id="g17"><path
         style="fill:#ffffff"
         d="m 14.26,3.177 c -3.045,0 -6.362,1.181 -6.362,1.181 0,0 3.413,-0.171 3.413,1.256 0,1.331 -2.412,2.308 -2.412,2.308 0,0 1.464,0.343 1.464,1.188 0,1.924 -4.746,3.118 -4.746,3.118 9.958,0.483 15.646,-4.841 15.646,-5.825 0,-0.916 -2.771,-3.226 -7.003,-3.226 z"
         id="path19"
         inkscape:connector-curvature="0" /></g><path
       style="fill:#8d734a"
       d="m 14.26,3.372 c -1.909,0 -3.944,0.476 -5.169,0.821 0,0 2.415,0.098 2.415,1.42 0,1.076 -1.347,1.905 -2.078,2.276 0.477,0.193 1.13,0.576 1.13,1.22 0,1.432 -2.28,2.449 -3.729,2.952 9.029,0 14.237,-4.8 14.237,-5.659 0,-0.779 -2.673,-3.03 -6.806,-3.03 z"
       id="path21"
       inkscape:connector-curvature="0" /><path
       style="fill:#ffffff"
       d="m 12.592,4.812 c 0,0 2.668,0.602 3.861,1.399 l -5.202,1.347 4.933,-0.161 c -1.1,0.804 -5.107,2.727 -5.107,2.727 0,0 4.926,-0.733 8.041,-3.578 -2.772,-2.49 -6.526,-1.734 -6.526,-1.734 z"
       id="path23"
       inkscape:connector-curvature="0" /><path
       d="m 13.734,4.907 c 0,0 2.064,0.527 3.19,1.384 l -3.913,1.014 3.8,-0.124 c -1.062,0.893 -4.189,2.4 -4.189,2.4 C 14.267,9.145 16.865,8.239 18.807,6.55 17.077,5.103 14.986,4.88 13.734,4.907 Z"
       id="path25"
       inkscape:connector-curvature="0" /></g></svg>