<?xml version="1.0" encoding="UTF-8" standalone="no"?>
<!-- Generator: Adobe Illustrator 14.0.0, SVG Export Plug-In . SVG Version: 6.00 Build 43363)  -->

<svg
   xmlns:dc="http://purl.org/dc/elements/1.1/"
   xmlns:cc="http://creativecommons.org/ns#"
   xmlns:rdf="http://www.w3.org/1999/02/22-rdf-syntax-ns#"
   xmlns:svg="http://www.w3.org/2000/svg"
   xmlns="http://www.w3.org/2000/svg"
   xmlns:sodipodi="http://sodipodi.sourceforge.net/DTD/sodipodi-0.dtd"
   xmlns:inkscape="http://www.inkscape.org/namespaces/inkscape"
   version="1.1"
   id="Layer_1"
   x="0px"
   y="0px"
   width="128"
   height="128"
   viewBox="0 0 128 128"
   enable-background="new 0 0 230 230"
   xml:space="preserve"
   inkscape:version="0.91 r13725"
   sodipodi:docname="ari.svg"><metadata
     id="metadata31"><rdf:RDF><cc:Work
         rdf:about=""><dc:format>image/svg+xml</dc:format><dc:type
           rdf:resource="http://purl.org/dc/dcmitype/StillImage" /><dc:title></dc:title></cc:Work></rdf:RDF></metadata><defs
     id="defs29" /><sodipodi:namedview
     pagecolor="#ffffff"
     bordercolor="#666666"
     borderopacity="1"
     objecttolerance="10"
     gridtolerance="10"
     guidetolerance="10"
     inkscape:pageopacity="0"
     inkscape:pageshadow="2"
     inkscape:window-width="1920"
     inkscape:window-height="1017"
     id="namedview27"
     showgrid="false"
     inkscape:zoom="4.1043478"
     inkscape:cx="87.203972"
     inkscape:cy="52.870042"
     inkscape:window-x="1912"
     inkscape:window-y="-8"
     inkscape:window-maximized="1"
     inkscape:current-layer="Layer_1" /><g
     id="g3"
     transform="matrix(0.62080773,0,0,0.62080773,-7.3919577,-7.3938202)"><path
       d="m 211.903,109.889 -5.102,-2.279 c 0.129,-0.985 0.21,-2.206 0.141,-3.594 -0.231,-4.646 -2.061,-9.017 -5.287,-12.639 l -5.253,-5.895 0.23,7.767 c -0.012,0.167 -0.104,1.144 -0.688,2.639 -0.477,1.222 -1.368,2.999 -3.008,5.062 l -1.148,-0.582 -2.848,-7.397 11.81,-24.762 0.905,4.313 3.779,-6.145 c 0.098,-0.158 0.972,-1.616 1.708,-4.084 0.881,-2.951 1.211,-6.184 0.965,-9.401 l 2.577,-5.255 0.342,-0.696 -0.055,-0.773 c -0.015,-0.203 -1.438,-20.307 -1.606,-23.688 -0.083,-1.656 -1.581,-4.236 -3.643,-6.274 -1.983,-1.96 -5.363,-4.296 -10.202,-4.296 -1.795,0 -3.517,0.293 -5.118,0.873 -1.193,0.431 -2.077,0.944 -2.471,1.253 -0.382,0.299 -4.993,3.87 -11.376,8.812 -18.674,14.46 -37.021,28.669 -41.22,31.953 -0.101,0 -0.206,-0.001 -0.318,-0.001 -1.75,0 -5.391,0.109 -10.108,0.841 -5.491,0.852 -10.842,2.285 -15.903,4.26 -6.604,2.578 -12.639,6.058 -17.938,10.346 -6.264,5.069 -11.55,11.311 -15.717,18.559 l -57.893,46.52 -2.219,1.783 1.761,2.236 c 0.207,0.263 0.486,0.646 0.811,1.09 1.784,2.444 5.104,6.993 10.359,10.923 6.496,4.858 13.983,7.321 22.254,7.321 2.272,0 4.632,-0.188 7.014,-0.562 l 0.043,-0.007 0.043,-0.009 11.189,-2.102 c 0.395,1.544 0.976,3.684 1.764,6.268 2.345,7.689 6.717,19.041 14.224,29.461 4.164,5.779 8.89,10.708 14.045,14.647 6.032,4.609 12.753,7.941 19.976,9.903 l 6.683,1.815 -3.433,-6.015 c -0.039,-0.07 -4.086,-7.236 -6.852,-16.896 -1.887,-6.589 -3.46,-15.412 -1.983,-23.895 1.034,2.532 2.341,5.421 3.925,8.346 2.7,4.985 5.652,9.045 8.776,12.064 4.134,3.996 8.598,6.209 13.268,6.577 l 7.104,0.561 -4.708,-5.313 c -0.131,-0.156 -3.491,-4.188 -5.461,-11.146 -2.245,-7.929 -1.894,-16.328 1.039,-25.032 0.852,1.083 1.868,2.263 3.046,3.443 2.404,2.408 4.997,4.337 7.705,5.731 3.464,1.783 7.112,2.691 10.845,2.698 l 5.951,0.013 -3.689,-4.67 c -0.979,-1.239 -1.805,-2.875 -2.74,-4.949 -3.211,-7.11 -4.049,-15.396 -2.353,-22.595 l 30.786,1.178 0.638,0.024 0.587,-0.247 14.836,-6.238 0.919,-0.387 0.482,-0.874 9.152,-16.569 1.513,-2.738 -2.855,-1.275 z"
       id="path5"
       inkscape:connector-curvature="0"
       style="fill:#ffffff" /><g
       id="g7"><path
         d="m 19.26,137.564 c 2.928,3.719 13.508,21.505 37.734,17.71 13.876,-2.606 13.876,-2.606 13.876,-2.606 0,0 0.728,3.416 2.357,8.759 4.534,14.862 16.869,44.097 46.249,52.076 0,0 -16.713,-29.287 -6.516,-51.348 0,0 8.893,31.874 26.374,33.254 0,0 -14.95,-17.135 -2.933,-44.218 0,0 7.935,15.123 22.281,15.151 -1.193,-1.51 -2.137,-3.403 -3.105,-5.549 -3.207,-7.104 -4.923,-17.153 -1.897,-26.737 l 33.063,1.266 14.835,-6.239 9.152,-16.569 -7.207,-3.22 c 0,0 2.799,-8.356 -4.015,-16.004 0,0 -0.029,4.974 -5.865,11.241 l -4.14,-2.099 -3.69,-9.583 15.448,-32.392 c 0,0 1.366,2.702 1.726,4.413 0,0 3.009,-4.893 2.185,-12.521 l 2.933,-5.98 c 0,0 -1.438,-20.297 -1.61,-23.747 -0.06,-1.209 -3.728,-7.839 -10.973,-7.839 -3.477,0 -5.627,1.365 -5.816,1.514 -1.323,1.035 -51.827,40.116 -53.403,41.4 -3.522,-0.172 -39.862,-0.402 -58.722,33.005 L 19.26,137.564 Z"
         id="path9"
         inkscape:connector-curvature="0" /></g><path
       d="m 50.133,147.531 c 3.105,-0.69 -3.22,-2.875 -4.36,-8.778 1.715,1.342 8.347,3.833 9.842,2.606 1.121,-1.121 -2.415,-4.888 -1.035,-13.34 1.432,-8.772 6.382,-10.178 3.91,-11.615 -2.76,-0.46 -28.405,20.7 -28.405,20.7 l 4.025,6.67 c -10e-4,0 13.493,5.022 16.023,3.757 z"
       id="path11"
       inkscape:connector-curvature="0"
       style="fill:#efe1c6" /><polygon
       points="191.502,128.45 199.71,125.01 197.323,119.452 191.502,128.45 "
       id="polygon13"
       style="fill:#8e0028" /><path
       d="m 130.135,155.543 c -0.191,1.265 1.495,1.955 2.108,0.498 0.613,-1.457 3.986,-11.116 5.29,-11.231 0.498,-0.044 1.108,2.756 2.836,5.597 2.795,4.592 8.089,10.12 11.041,10.12 1.308,0 1.523,-0.178 1.523,-0.178 l -3.206,-4.743 -9.358,-25.977 -5.75,8.625 -4.484,17.289 z"
       id="path15"
       inkscape:connector-curvature="0"
       style="fill:#8e0028" /><path
       d="m 117.638,137.564 c 0,0 12.717,47.461 11.894,46.493 -13.444,-15.814 -14.04,-33.345 -14.04,-33.345 0,0 -8.679,10.3 -8.929,27.446 l -3.089,-0.23 6.422,-25.989 7.742,-14.375 z"
       id="path17"
       inkscape:connector-curvature="0"
       style="fill:#8e0028" /><path
       d="m 200.601,110.108 c 0,0 1.955,-6.785 -0.229,-11.644 -1.208,4.198 -3.68,6.9 -5.765,8.769 l -7.432,-3.608 15.064,9.751 -9.085,2.146 -8.318,-2.99 c 0,0 1.63,-8.817 -0.508,-11.869 -0.118,0.676 -0.628,1.674 -0.905,2.343 -1.609,3.882 -5.089,7.058 -5.089,7.058 l -8.026,-2.899 -6.593,-17.288 24.111,-38.947 c 0,0 2.664,2.683 3.986,5.941 1.61,-5.021 -0.728,-11.308 -0.728,-11.308 l 2.875,-4.639 6.995,-5.079 1.284,6.383 -11.5,31.893 9.124,-19.665 c 0,0 0.445,0.403 1.073,1.304 0.655,0.941 1.504,2.408 1.955,3.603 1.073,-2.722 -0.422,-10.043 -0.422,-10.043 l 2.645,-4.869 -3.22,-11.883 -12.219,8.438 -36.023,41.098 c 0,0 -8.166,3.161 -13.829,7.446 -1.21,0.916 -2.25,1.94 -3.134,2.933 0,0 9.507,1.802 10.351,8.165 0,0 -3.075,1.801 -7.629,5.232 -16.577,12.494 -53.422,45.472 -38.908,81.631 2.643,6.585 7.028,13.173 13.513,19.876 0,0 -18.304,-30.992 3.699,-66.173 0.008,0.817 -0.069,33.134 14.433,45.722 -10.369,-24.495 7.656,-53.676 7.656,-53.676 -3.286,15.055 13.13,27.087 13.13,27.087 -7.695,-16.229 -1.121,-31.236 -1.121,-31.236 l 34.909,1.39 4.78,-2.052 6.004,-5.912 2.204,2.472 6.756,-12.199 -5.864,-2.702 z m -42.023,-20.652 10.963,-13.493 -7.867,13.417 6.487,17.71 -9.583,-17.634 z"
       id="path19"
       inkscape:connector-curvature="0"
       style="fill:#efe1c6" /><path
       d="m 203.821,24.75 c -1.064,1.322 -2.655,6.842 -2.655,6.842 0,0 -0.162,-4.571 -2.318,-7.446 -2.026,-2.7 -4.543,-0.345 -6.297,-2.846 -0.803,-1.144 -0.776,-2.817 -0.776,-2.817 l -4.888,3.68 c 0,0 -1.322,5.29 -1.034,11.787 0,0 -2.933,-2.3 -4.601,-6.842 0,0 -1.149,2.645 -1.207,12.42 0,0 -3.163,-2.875 -5.003,-7.533 0,0 -1.438,6.095 -1.265,13.513 0,0 -2.76,-2.07 -5.578,-8.28 0,0 -1.38,7.245 -1.265,14.893 0,0 -4.485,-4.082 -6.21,-9.603 0,0 -21.477,16.445 -22.972,17.595 -1.494,1.15 -10.781,11.27 -13.139,22.167 0,0 -0.259,-5.376 0.499,-10.494 0,0 -9.147,6.507 -14.284,12.104 0,0 -0.129,-6.891 3.694,-12.65 0,0 -1.358,0.874 -3.062,2.214 -1.074,0.845 -2.115,1.786 -3.58,3.09 -3.68,3.277 -8.203,7.543 -11.011,10.422 0,0 7.676,-14.49 19.367,-22.751 0,0 -30.034,6.689 -40.556,39.742 -0.288,-0.316 0.518,-7.619 0.518,-7.619 l -51.405,40.806 c 11.73,16.177 31.05,13.953 33.197,13.57 6.388,-1.141 26.287,-4.265 26.287,-4.265 0,0 -3.249,-8.223 -2.559,-13.656 0,0 2.185,10.608 9.698,17.192 l -16.407,2.262 c 0,0 0.871,3.348 2.338,8.289 3.704,12.478 13.176,35.967 36.666,46.854 0,0 -1.983,-2.058 -4.84,-5.468 -8.082,-9.647 -21.896,-31.672 -7.791,-60.562 -11.27,2.684 -12.957,-4.983 -12.957,-4.983 15.027,10.503 47.859,-33.369 39.838,-43.776 0,0 13.714,-11.126 23.432,-12.506 l 37.979,-39.086 11.49,-6.406 3.948,9.852 -1.291,-19.705 z M 56.419,146.765 c -1.36,0.266 -3.441,0.387 -4.216,0.383 -4.856,-0.024 -16.072,-1.685 -20.278,-9.046 L 72.022,105.94 c -27.37,26.986 2.491,35.765 6.287,37.03 -10e-4,0 -17.462,2.932 -21.89,3.795 z"
       id="path21"
       inkscape:connector-curvature="0"
       style="fill:#8e0028" /><polygon
       points="179.01,91.104 184.069,83.687 181.31,91.162 184.012,98.119 "
       id="polygon23"
       style="fill:#8e0028" /><path
       d="m 118.189,68.306 c 0,0 3.876,-0.949 9.319,-0.69 0.369,-1.093 -1.385,-1.323 -2.765,-1.323 2.199,-1.581 5.678,-2.674 5.678,-2.674 l 1.897,-2.242 c -5.691,0.46 -14.129,6.929 -14.129,6.929 z"
       id="path25"
       inkscape:connector-curvature="0"
       style="fill:#efe1c6" /></g></svg>