<?xml version="1.0" encoding="UTF-8" standalone="no"?>
<!-- Generator: Adobe Illustrator 13.0.0, SVG Export Plug-In . SVG Version: 6.00 Build 14948)  -->

<svg
   xmlns:dc="http://purl.org/dc/elements/1.1/"
   xmlns:cc="http://creativecommons.org/ns#"
   xmlns:rdf="http://www.w3.org/1999/02/22-rdf-syntax-ns#"
   xmlns:svg="http://www.w3.org/2000/svg"
   xmlns="http://www.w3.org/2000/svg"
   xmlns:sodipodi="http://sodipodi.sourceforge.net/DTD/sodipodi-0.dtd"
   xmlns:inkscape="http://www.inkscape.org/namespaces/inkscape"
   version="1.1"
   id="Layer_8"
   x="0px"
   y="0px"
   width="128"
   height="128"
   viewBox="0 0 128 128"
   enable-background="new 0 0 226.979 226.979"
   xml:space="preserve"
   inkscape:version="0.91 r13725"
   sodipodi:docname="bos.svg"><metadata
     id="metadata55"><rdf:RDF><cc:Work
         rdf:about=""><dc:format>image/svg+xml</dc:format><dc:type
           rdf:resource="http://purl.org/dc/dcmitype/StillImage" /><dc:title></dc:title></cc:Work></rdf:RDF></metadata><defs
     id="defs53" /><sodipodi:namedview
     pagecolor="#ffffff"
     bordercolor="#666666"
     borderopacity="1"
     objecttolerance="10"
     gridtolerance="10"
     guidetolerance="10"
     inkscape:pageopacity="0"
     inkscape:pageshadow="2"
     inkscape:window-width="1920"
     inkscape:window-height="1017"
     id="namedview51"
     showgrid="false"
     inkscape:zoom="1.0397437"
     inkscape:cx="-5.2897649"
     inkscape:cy="113.4895"
     inkscape:window-x="-8"
     inkscape:window-y="-8"
     inkscape:window-maximized="1"
     inkscape:current-layer="Layer_8" /><g
     id="g3383"
     transform="matrix(0.56393131,0,0,0.56393131,0,55.817359)"><g
       transform="translate(0,-98.979004)"
       id="Layer_7"><g
         id="g4"><path
           style="fill:#ffffff"
           inkscape:connector-curvature="0"
           id="path6"
           d="m 113.49,216.642 c -27.553,0 -53.457,-10.73 -72.94,-30.213 C 21.068,166.945 10.338,141.04 10.338,113.49 10.338,85.937 21.067,60.033 40.55,40.551 60.033,21.069 85.937,10.339 113.49,10.339 c 27.552,0 53.455,10.73 72.938,30.212 19.482,19.482 30.214,45.387 30.214,72.939 0,27.551 -10.731,53.455 -30.214,72.939 -19.483,19.482 -45.387,30.213 -72.938,30.213 l 0,0 z" /><path
           style="fill:#ffc422"
           inkscape:connector-curvature="0"
           id="path8"
           d="m 113.489,20.675 c 51.258,0 92.815,41.554 92.815,92.814 0,51.257 -41.557,92.814 -92.815,92.814 -51.26,0 -92.814,-41.558 -92.814,-92.814 0,-51.26 41.554,-92.814 92.814,-92.814 M 113.489,0 C 98.178,0 83.313,3.003 69.308,8.927 55.791,14.644 43.656,22.824 33.24,33.24 22.824,43.656 14.644,55.791 8.927,69.308 3.003,83.313 0,98.177 0,113.489 c 0,15.311 3.003,30.177 8.927,44.18 5.717,13.518 13.897,25.652 24.313,36.067 10.416,10.417 22.551,18.598 36.067,24.314 14.005,5.924 28.87,8.928 44.182,8.928 15.311,0 30.177,-3.004 44.181,-8.928 13.517,-5.717 25.651,-13.897 36.067,-24.313 10.417,-10.416 18.597,-22.551 24.313,-36.067 5.924,-14.004 8.928,-28.87 8.928,-44.181 0,-15.312 -3.004,-30.177 -8.928,-44.182 C 212.333,55.79 204.154,43.656 193.737,33.24 183.321,22.824 171.186,14.644 157.67,8.927 143.667,3.003 128.8,0 113.489,0 l 0,0 z" /></g></g><g
       transform="translate(0,-98.979004)"
       id="Layer_2"><g
         id="g11"><g
           id="g13"><polygon
             style="fill:#ffc422"
             id="polygon15"
             points="122.143,11.487 122.143,73.221 122.143,73.221 104.797,73.215 104.797,11.487 " /><path
             style="fill:#231f20"
             inkscape:connector-curvature="0"
             id="path17"
             d="m 124.727,8.903 0,66.903 -22.515,-0.007 0,-66.896 22.515,0 m -5.168,5.169 -12.178,0 0,56.56 12.178,0.004 0,-56.564 0,0 z" /></g><g
           id="g19"><polygon
             style="fill:#ffc422"
             id="polygon21"
             points="122.143,154.066 122.143,215.653 122.143,215.653 104.796,215.653 104.796,154.066 " /><path
             style="fill:#231f20"
             inkscape:connector-curvature="0"
             id="path23"
             d="m 124.727,151.481 0,66.756 -22.515,0 0,-66.756 22.515,0 m -5.168,5.169 -12.178,0 0,56.418 12.178,0 0,-56.418 0,0 z" /></g><g
           id="g25"><path
             style="fill:#ffc422"
             inkscape:connector-curvature="0"
             id="path27"
             d="m 179.52,191.887 -42.468,-42.468 3.499,-3.498 0.759,-0.758 -0.002,-1.072 -0.015,-14.963 50.493,50.492 -12.266,12.267 0,0 z m -132.101,0 -12.266,-12.267 52.966,-52.965 3.697,-3.696 0,24.529 -44.397,44.399 0,0 z m 168.132,-69.643 -74.903,0 -4.998,0 -2.486,-2.486 -0.757,-0.757 -1.069,0 -36.936,-0.011 -2.585,-10e-4 0,2.585 0,0.67 -5.524,0 -74.906,0 0,-17.348 74.904,0 5.574,0 0,0.808 0,2.584 2.584,0 36.935,0 1.071,0 0.757,-0.757 2.635,-2.635 4.801,0 74.903,0 0,17.348 0,0 z M 91.865,104.231 88.118,100.485 35.153,47.52 47.419,35.254 91.865,79.7 l 0,24.531 0,0 z m 49.492,-6.282 -0.016,-14.771 -0.001,-1.069 -0.757,-0.756 -3.582,-3.582 42.519,-42.517 12.267,12.266 -50.43,50.429 0,0 z" /><path
             style="fill:#231f20"
             inkscape:connector-curvature="0"
             id="path29"
             d="m 179.52,31.599 15.921,15.921 -54.793,54.792 77.489,0 0,22.515 -77.489,0 54.793,54.793 -15.921,15.921 -46.122,-46.122 5.327,-5.326 -0.017,-15.135 -7.372,-7.373 -36.935,-0.011 0,26.984 -46.982,46.982 -15.921,-15.92 54.793,-54.793 -77.488,0 0,-22.515 77.489,0 -54.794,-54.792 15.921,-15.921 47.03,47.03 0,27.076 36.935,0 7.389,-7.389 -0.016,-15.135 -5.41,-5.409 46.173,-46.173 m 0,7.309 -38.862,38.863 1.754,1.754 1.512,1.512 0.002,2.138 0.009,8.542 44.195,-44.197 -8.61,-8.612 0,0 z m -132.101,10e-4 -8.611,8.611 50.472,50.472 0,-17.222 -41.861,-41.861 0,0 z m 165.548,68.572 -72.319,0 -3.731,0 -1.878,1.878 -1.513,1.514 -2.142,0 -36.935,0 -5.169,0 0,-3.392 -2.989,0 -72.32,0 0,12.178 72.321,0 2.941,0 0,-3.256 5.171,0.002 36.934,0.012 2.14,0.001 1.514,1.513 1.729,1.729 3.929,0 72.319,0 0,-12.179 -0.002,0 z m -123.735,21.715 -50.424,50.424 8.611,8.611 41.813,-41.813 0,-17.222 0,0 z m 54.652,6.177 0.009,8.715 0.003,2.145 -1.516,1.517 -1.673,1.67 38.813,38.813 8.61,-8.611 -44.246,-44.249 0,0 z" /></g></g></g><g
       transform="translate(0,-98.979004)"
       id="Layer_3_copy"><g
         id="g32"><g
           id="g34"><path
             style="fill:#231f20"
             inkscape:connector-curvature="0"
             id="path36"
             d="m 142.025,172.151 -1.803,0 -70.124,0 -4.431,0 0,-4.43 0,-11.446 0,-1.897 1.374,-1.31 6.749,-6.433 0,-65.989 -6.75,-6.442 -1.372,-1.309 0,-1.896 0,-11.453 0,-4.43 4.431,0 70.125,0 1.805,0 1.291,1.262 16.631,16.25 1.334,1.304 0,1.865 0,28.059 0,1.887 -1.358,1.307 -6.846,6.578 6.849,6.6 1.355,1.307 0,1.884 0,28.063 0,1.866 -1.335,1.304 -16.631,16.239 -1.294,1.26 0,0 z m -43.194,-25.1 30.671,0 4.79,-4.79 -0.012,-11.466 -4.779,-4.78 -30.67,-0.009 0,21.045 0,0 z m 0.048,-45.776 30.67,0 4.791,-4.793 -0.012,-11.463 -4.781,-4.781 -30.668,-0.009 0,21.046 0,0 z" /><path
             style="fill:#231f20"
             inkscape:connector-curvature="0"
             id="path38"
             d="m 140.222,59.546 16.631,16.25 0,28.059 -10.164,9.768 10.164,9.795 0,28.063 -16.631,16.239 -70.124,0 0,-11.445 8.123,-7.741 0,-69.784 -8.123,-7.751 0,-11.453 70.124,0 m -45.773,46.159 36.935,0 7.389,-7.389 -0.016,-15.135 -7.373,-7.372 -36.935,-0.012 0,29.908 m -0.048,45.776 36.935,0 7.389,-7.389 -0.017,-15.135 -7.372,-7.373 -36.935,-0.011 0,29.908 m 49.432,-100.795 -3.61,0 -70.125,0 -8.86,0 0,8.86 0,11.453 0,3.792 2.743,2.618 5.379,5.133 0,62.197 -5.375,5.123 -2.747,2.618 0,3.795 0,11.445 0,8.861 8.86,0 70.125,0 3.608,0 2.581,-2.521 16.632,-16.239 2.67,-2.607 0,-3.732 0,-28.063 0,-3.768 -2.712,-2.613 -3.533,-3.405 3.525,-3.388 2.72,-2.615 0,-3.774 0,-28.06 0,-3.73 -2.668,-2.607 -16.632,-16.25 -2.581,-2.523 0,0 z m -40.523,46.158 0,-12.184 24.403,0.007 2.186,2.187 0.009,7.795 -2.193,2.194 -24.405,0 0,10e-4 z m -0.048,45.776 0,-12.183 24.402,0.007 2.187,2.188 0.009,7.794 -2.193,2.193 -24.405,0 0,0.001 z" /></g><g
           id="g40"><path
             style="fill:#231f20"
             inkscape:connector-curvature="0"
             id="path42"
             d="m 141.048,169.751 -0.826,0 -70.124,0 -2.031,0 0,-2.03 0,-11.444 0,-0.87 0.629,-0.6 7.493,-7.143 0,-68.045 -7.494,-7.151 -0.628,-0.6 0,-0.869 0,-11.453 0,-2.031 2.031,0 70.125,0 0.826,0 0.593,0.578 16.631,16.251 0.612,0.597 0,0.855 0,28.059 0,0.865 -0.625,0.599 -8.641,8.306 8.644,8.329 0.622,0.599 0,0.864 0,28.063 0,0.857 -0.613,0.597 -16.631,16.239 -0.593,0.578 0,0 z m -44.616,-20.299 34.065,0 6.197,-6.197 -0.016,-13.456 -6.182,-6.183 -34.065,-0.011 0,25.847 0.001,0 z m 0.048,-45.779 34.063,0 6.198,-6.197 -0.015,-13.454 -6.184,-6.184 -34.062,-0.01 0,25.845 0,0 z" /><path
             style="fill:#ffc422"
             inkscape:connector-curvature="0"
             id="path44"
             d="m 140.222,59.546 16.631,16.25 0,28.059 -10.164,9.768 10.164,9.795 0,28.063 -16.631,16.239 -70.124,0 0,-11.445 8.123,-7.741 0,-69.784 -8.123,-7.751 0,-11.453 70.124,0 m -45.773,46.159 36.935,0 7.389,-7.389 -0.016,-15.135 -7.373,-7.372 -36.935,-0.012 0,29.908 m -0.048,45.776 36.935,0 7.389,-7.389 -0.017,-15.135 -7.372,-7.373 -36.935,-0.011 0,29.908 m 47.476,-95.996 -1.655,0 -70.124,0 -4.061,0 0,4.061 0,11.453 0,1.738 1.257,1.2 6.865,6.551 0,66.307 -6.863,6.541 -1.259,1.2 0,1.739 0,11.445 0,4.062 4.061,0 70.125,0 1.653,0 1.184,-1.155 16.631,-16.239 1.225,-1.195 0,-1.711 0,-28.063 0,-1.728 -1.244,-1.197 -7.123,-6.865 7.119,-6.845 1.248,-1.198 0,-1.729 0,-28.061 0,-1.709 -1.224,-1.195 -16.631,-16.25 -1.184,-1.157 0,0 z m -43.366,46.158 0,-21.784 31.191,0.01 4.995,4.996 0.013,11.771 -5.008,5.008 -31.191,0 0,-0.001 z m -0.049,45.778 0,-21.784 31.191,0.01 4.996,4.996 0.013,11.771 -5.009,5.008 -31.191,0 0,-0.001 z" /></g></g></g><g
       transform="translate(0,-98.979004)"
       id="Layer_6"><g
         id="g47"><path
           style="fill:#231f20"
           inkscape:connector-curvature="0"
           id="path49"
           d="m 113.489,20.675 c 51.258,0 92.815,41.554 92.815,92.814 0,51.257 -41.557,92.814 -92.815,92.814 -51.26,0 -92.814,-41.558 -92.814,-92.814 0,-51.26 41.554,-92.814 92.814,-92.814 m 0,-16.244 c -14.715,0 -29,2.885 -42.456,8.577 C 58.044,18.502 46.383,26.363 36.372,36.374 26.361,46.384 18.5,58.046 13.006,71.034 7.316,84.489 4.43,98.773 4.43,113.489 c 0,14.715 2.886,28.999 8.577,42.455 5.494,12.987 13.355,24.649 23.366,34.659 10.01,10.012 21.672,17.873 34.66,23.367 13.457,5.692 27.741,8.577 42.456,8.577 14.716,0 29,-2.885 42.456,-8.577 12.987,-5.494 24.649,-13.355 34.66,-23.366 10.011,-10.011 17.873,-21.673 23.366,-34.66 5.692,-13.456 8.577,-27.74 8.577,-42.455 0,-14.716 -2.885,-29 -8.577,-42.456 C 208.478,58.045 200.616,46.383 190.605,36.373 180.594,26.362 168.932,18.501 155.944,13.007 142.489,7.316 128.206,4.431 113.489,4.431 l 0,0 z" /></g></g></g></svg>