<?xml version="1.0" encoding="UTF-8" standalone="no"?>
<!-- Generator: Adobe Illustrator 13.0.0, SVG Export Plug-In . SVG Version: 6.00 Build 14948)  -->

<svg
   xmlns:dc="http://purl.org/dc/elements/1.1/"
   xmlns:cc="http://creativecommons.org/ns#"
   xmlns:rdf="http://www.w3.org/1999/02/22-rdf-syntax-ns#"
   xmlns:svg="http://www.w3.org/2000/svg"
   xmlns="http://www.w3.org/2000/svg"
   xmlns:sodipodi="http://sodipodi.sourceforge.net/DTD/sodipodi-0.dtd"
   xmlns:inkscape="http://www.inkscape.org/namespaces/inkscape"
   version="1.1"
   x="0px"
   y="0px"
   width="128"
   height="128"
   viewBox="0 0 128 128"
   enable-background="new 0 0 232.568 144.898"
   xml:space="preserve"
   id="svg2"
   inkscape:version="0.91 r13725"
   sodipodi:docname="car.svg"><metadata
     id="metadata30"><rdf:RDF><cc:Work
         rdf:about=""><dc:format>image/svg+xml</dc:format><dc:type
           rdf:resource="http://purl.org/dc/dcmitype/StillImage" /><dc:title></dc:title></cc:Work></rdf:RDF></metadata><defs
     id="defs28" /><sodipodi:namedview
     pagecolor="#ffffff"
     bordercolor="#666666"
     borderopacity="1"
     objecttolerance="10"
     gridtolerance="10"
     guidetolerance="10"
     inkscape:pageopacity="0"
     inkscape:pageshadow="2"
     inkscape:window-width="1920"
     inkscape:window-height="1017"
     id="namedview26"
     showgrid="false"
     inkscape:zoom="1.2383475"
     inkscape:cx="16.554319"
     inkscape:cy="72.448997"
     inkscape:window-x="1912"
     inkscape:window-y="-8"
     inkscape:window-maximized="1"
     inkscape:current-layer="svg2" /><g
     id="Layer_7"
     transform="matrix(0.57861999,0,0,0.57861999,-3.733256,21.847823)" /><g
     id="Layer_6"
     transform="matrix(0.57861999,0,0,0.57861999,-3.733256,21.847823)"><g
       id="Layer_2"><g
         id="g7"><path
           d="m 63.471,138.03 c -9.528,0 -18.024,-0.66 -25.255,-1.966 l -3.521,-0.634 2.997,-1.953 6.663,-4.343 C 40.474,128.688 34.468,127.592 28.404,124.905 19.038,120.753 7.874,111.902 7.874,93.316 7.874,79.993 13.49,67.458 24.57,56.057 34.34,46.002 48.135,37.021 65.57,29.361 96.03,15.98 136.07,7.668 170.062,7.668 c 9.871,0 18.688,0.714 26.207,2.124 l 3.504,0.657 -2.994,1.934 -6.645,4.289 c 3.836,0.507 9.8,1.697 15.822,4.475 9.256,4.27 20.291,13.216 20.291,31.58 -0.043,13.425 -5.749,26.009 -16.96,37.406 -9.863,10.023 -23.776,18.96 -41.353,26.553 -30.471,13.166 -70.5,21.344 -104.463,21.344 l 0,0 z"
           id="path9"
           inkscape:connector-curvature="0"
           style="fill:#ffffff" /><path
           d="m 170.062,9.089 c 9.637,0 18.453,0.695 25.946,2.1 l -10.113,6.528 c 0,0 38.932,0.914 38.932,35.008 -0.177,55.235 -99.256,83.885 -161.357,83.885 -9.32,0 -17.808,-0.646 -25.002,-1.943 l 10.198,-6.646 c 0,0 -39.372,-0.202 -39.372,-34.704 C 9.293,38.542 107.299,9.089 170.062,9.089 m 0,-2.841 C 135.884,6.248 95.627,14.606 64.999,28.061 47.395,35.795 33.45,44.882 23.55,55.068 12.204,66.742 6.452,79.61 6.452,93.316 c 0,15.315 7.391,26.688 21.376,32.887 4.498,1.995 8.97,3.136 12.611,3.788 l -3.523,2.295 -5.994,3.907 7.041,1.271 c 7.315,1.32 15.897,1.987 25.507,1.987 34.146,0 74.389,-8.224 105.027,-21.462 17.746,-7.668 31.81,-16.705 41.802,-26.861 11.481,-11.67 17.325,-24.588 17.369,-38.393 0,-15.14 -7.303,-26.506 -21.118,-32.879 -4.481,-2.068 -8.938,-3.279 -12.555,-3.987 l 3.554,-2.292 5.989,-3.866 -7.008,-1.313 C 188.926,6.97 180.021,6.248 170.062,6.248 l 0,0 z"
           id="path11"
           inkscape:connector-curvature="0"
           style="fill:#8e8e91" /></g></g><g
       id="Layer_3"><path
         d="m 181.8,14.166 c 0,0 -5.006,-0.812 -14.611,-0.812 -50.823,0 -152.416,26.502 -152.416,78.948 0,28.615 28.21,32.065 43.635,32.065 26.654,0 58.45,-10.045 71.235,-17.25 0,0 -47.693,18.941 -88.013,5.275 7.923,1.271 26.113,-1.218 33.292,-4.261 0,0 -20.066,-3.314 -20.066,-23.948 0,-51.504 114.162,-70.017 126.944,-70.017 z"
         id="path14"
         inkscape:connector-curvature="0"
         style="fill:#231f20" /><path
         d="m 69.468,85.908 c 5.311,-9.64 5.446,-15.728 11.535,-22.899 10.565,-12.003 43.972,-21.09 62.136,-21.09 18.336,0 24.761,11.835 24.862,19.297 0,21.174 -44.153,38.424 -44.075,38.424 42.586,-28.649 41.099,-45.037 16.55,-45.037 -20.296,10e-4 -57.918,13.344 -71.008,31.305 z"
         id="path16"
         inkscape:connector-curvature="0"
         style="fill:#231f20" /></g><g
       id="Layer_4"><path
         d="m 52.386,131.673 c 0,0 5.006,0.813 14.612,0.813 50.823,0 152.417,-26.504 152.417,-78.947 0,-28.616 -28.21,-32.066 -43.636,-32.066 -26.654,0 -58.449,10.047 -71.235,17.25 0,0 47.694,-18.942 88.013,-5.276 -7.924,-1.269 -26.113,1.217 -33.292,4.262 0,0 20.066,3.314 20.066,23.948 0.001,51.503 -114.162,70.016 -126.945,70.016 z"
         id="path19"
         inkscape:connector-curvature="0"
         style="fill:#e13a3e" /></g><g
       id="Layer_5"><path
         d="m 158.09,62.096 c -3.042,-8.465 -26.742,-7.395 -48.894,0.27 -23.808,8.556 -40.655,22.137 -37.612,30.601 3.042,8.466 26.738,7.792 48.615,-0.163 23.807,-8.555 40.932,-22.243 37.891,-30.708 z"
         id="path22"
         inkscape:connector-curvature="0"
         style="fill:#e13a3e" /><ellipse
         transform="matrix(0.9486,-0.3164,0.3164,0.9486,-18.7242,40.1271)"
         cx="114.204"
         cy="77.722"
         rx="19.101"
         ry="6.2969999"
         id="ellipse24"
         style="fill:#231f20" /></g></g></svg>