<?xml version="1.0" encoding="UTF-8" standalone="no"?>
<svg
   xmlns:dc="http://purl.org/dc/elements/1.1/"
   xmlns:cc="http://creativecommons.org/ns#"
   xmlns:rdf="http://www.w3.org/1999/02/22-rdf-syntax-ns#"
   xmlns:svg="http://www.w3.org/2000/svg"
   xmlns="http://www.w3.org/2000/svg"
   xmlns:sodipodi="http://sodipodi.sourceforge.net/DTD/sodipodi-0.dtd"
   xmlns:inkscape="http://www.inkscape.org/namespaces/inkscape"
   version="1.1"
   x="0px"
   y="0px"
   width="128"
   height="128"
   viewBox="0 0 128 128"
   enable-background="new 0 0 1024 1024"
   xml:space="preserve"
   id="svg2"
   inkscape:version="0.91 r13725"
   sodipodi:docname="icon-comments.svg"><defs
     id="defs12" /><sodipodi:namedview
     pagecolor="#ffffff"
     bordercolor="#666666"
     borderopacity="1"
     objecttolerance="10"
     gridtolerance="10"
     guidetolerance="10"
     inkscape:pageopacity="0"
     inkscape:pageshadow="2"
     inkscape:window-width="1920"
     inkscape:window-height="1017"
     id="namedview10"
     showgrid="false"
     inkscape:zoom="2.6074563"
     inkscape:cx="133.17408"
     inkscape:cy="68.527366"
     inkscape:window-x="1912"
     inkscape:window-y="-8"
     inkscape:window-maximized="1"
     inkscape:current-layer="svg2" /><metadata
     id="metadata4"> Free Icon Download -- www.onlinewebfonts.com <rdf:RDF><cc:Work
     rdf:about=""><dc:format>image/svg+xml</dc:format><dc:type
       rdf:resource="http://purl.org/dc/dcmitype/StillImage" /><dc:title></dc:title></cc:Work></rdf:RDF></metadata><path
     d="m 115.80139,16.46717 -103.848899,0 c -6.6583122,0 -12.07554357,5.416825 -12.07554357,12.075138 l 0,53.584889 c 0,6.658323 5.41723137,12.075138 12.07554357,12.075138 l 60.606678,0 27.907481,24.113845 c 0.6963,0.6015 1.57226,0.91446 2.45816,0.91446 0.52906,0 1.06225,-0.11177 1.56274,-0.34069 1.33713,-0.61186 2.19488,-1.94691 2.19488,-3.41735 l 0,-21.269848 9.11938,0 c 6.65832,0 12.07514,-5.416815 12.07514,-12.075138 l 0,-53.584889 C 127.87653,21.884402 122.45972,16.46717 115.80139,16.46717 Z M 33.811436,64.218381 c -5.292632,0 -9.583444,-4.290822 -9.583444,-9.583444 0,-5.292631 4.290812,-9.583027 9.583444,-9.583027 5.292621,0 9.583027,4.290813 9.583027,9.583027 4.07e-4,5.293038 -4.290406,9.583444 -9.583027,9.583444 z m 30.06551,0 c -5.292632,0 -9.583027,-4.290822 -9.583027,-9.583444 0,-5.292631 4.290812,-9.583027 9.583027,-9.583027 5.292621,0 9.583443,4.290813 9.583443,9.583027 0,5.293038 -4.290822,9.583444 -9.583443,9.583444 z m 30.065509,0 c -5.292631,0 -9.583443,-4.290822 -9.583443,-9.583444 0,-5.292631 4.290812,-9.583027 9.583443,-9.583027 5.292622,0 9.583035,4.290813 9.583035,9.583027 0,5.293038 -4.29082,9.583444 -9.583035,9.583444 z"
     id="path8"
     inkscape:connector-curvature="0"
     style="fill:#ffffff" /></svg>