<?xml version="1.0" encoding="UTF-8" standalone="no"?>
<!-- Generator: Adobe Illustrator 14.0.0, SVG Export Plug-In . SVG Version: 6.00 Build 43363)  -->

<svg
   xmlns:dc="http://purl.org/dc/elements/1.1/"
   xmlns:cc="http://creativecommons.org/ns#"
   xmlns:rdf="http://www.w3.org/1999/02/22-rdf-syntax-ns#"
   xmlns:svg="http://www.w3.org/2000/svg"
   xmlns="http://www.w3.org/2000/svg"
   xmlns:sodipodi="http://sodipodi.sourceforge.net/DTD/sodipodi-0.dtd"
   xmlns:inkscape="http://www.inkscape.org/namespaces/inkscape"
   version="1.1"
   id="Layer_2"
   x="0px"
   y="0px"
   width="128"
   height="128"
   viewBox="0 0 128 128"
   enable-background="new 0 0 212.204 250"
   xml:space="preserve"
   inkscape:version="0.91 r13725"
   sodipodi:docname="ott.svg"><metadata
     id="metadata33"><rdf:RDF><cc:Work
         rdf:about=""><dc:format>image/svg+xml</dc:format><dc:type
           rdf:resource="http://purl.org/dc/dcmitype/StillImage" /><dc:title></dc:title></cc:Work></rdf:RDF></metadata><defs
     id="defs31" /><sodipodi:namedview
     pagecolor="#ffffff"
     bordercolor="#666666"
     borderopacity="1"
     objecttolerance="10"
     gridtolerance="10"
     guidetolerance="10"
     inkscape:pageopacity="0"
     inkscape:pageshadow="2"
     inkscape:window-width="1920"
     inkscape:window-height="1017"
     id="namedview29"
     showgrid="false"
     inkscape:zoom="0.944"
     inkscape:cx="-24.724274"
     inkscape:cy="125"
     inkscape:window-x="1912"
     inkscape:window-y="-8"
     inkscape:window-maximized="1"
     inkscape:current-layer="Layer_2" /><g
     id="g3361"
     transform="matrix(0.54246482,0,0,0.54246482,6.4439401,62.373148)"><g
       transform="translate(0,-122)"
       id="g3"><path
         inkscape:connector-curvature="0"
         id="path5"
         d="m 150.553,92.802 -23.499,-32.189 -7.671,3.597 c 0,0 -2.822,-1.594 -13.947,-3.167 l 5.525,-5.551 0,-12.725 -3.938,0 c 2.504,-3.346 2.914,-8.49 2.914,-12.861 0,-4.37 -0.092,-14.385 12.746,-22.887 l -50.553,0 C 42.426,17.023 40.836,61.64 43.473,91.819 l 7.318,-2.839 c 0,0 -4.859,10.942 -2.561,16.849 -3.392,7.978 -2.262,15.58 1.024,21.339 l -3.688,5.189 0.819,23.422 c 0,0 -0.463,0.648 -0.888,1.229 -0.99,1.354 -3.456,3.453 -12.326,5.087 -9.815,1.809 -12.051,3.831 -13.042,7.956 -0.995,4.14 -9.943,7.173 -10.846,7.454 0,0 -0.933,2.721 -0.933,5.861 0,12.522 15.736,20.555 34.041,27.621 19.338,7.466 42.986,13.555 51.039,24.235 9.89,4.968 21.239,7.757 33.651,7.757 43.724,0 76.771,-36.214 76.771,-77.196 0.001,-34.127 -22.278,-62.633 -53.299,-72.981 z" /><path
         style="fill:#e4173e"
         inkscape:connector-curvature="0"
         id="path7"
         d="m 48.753,81.439 c 0,0 -3.79,-55.181 23.069,-66.379 l 3.881,24.816 0.819,-26.13 33.142,0.045 c -3.624,2.3 -4.849,5.109 -5.554,8.24 -1.491,6.613 -0.296,15.205 -3.027,19.849 L 75.817,41.857 48.753,81.439 Z" /><path
         style="fill:#e4173e"
         inkscape:connector-curvature="0"
         id="path9"
         d="m 23.989,177.039 2.321,4.348 -2.083,2.186 33.835,15.501 C 35.095,184.415 25.171,178.497 25.171,172.442 c 0,-5.702 13.532,-3.688 21.077,-9.082 2.003,12.041 -15.159,12.405 -15.159,12.405 l 28.225,15.569 c 13.703,13.134 29.545,17.367 29.545,17.367 3.414,3.961 4.097,7.512 4.097,7.512 0,0 -16.935,-10.448 -25.539,-11.609 0,0 5.376,2.63 11.677,6.01 10.13,5.434 22.879,13.521 21.237,21.101 C 86,211.423 15.248,205.071 15.248,184.392 c 0,-5.578 7.693,-5.578 8.741,-7.353 z" /><path
         style="fill:#e4173e"
         inkscape:connector-curvature="0"
         id="path11"
         d="m 125.37,228.436 c 3.983,-12.243 12.672,-19.089 23.536,-27.063 9.941,-7.298 19.098,-14.167 19.098,-27.77 -0.41,-1.435 -11.37,-5.839 -12.599,-6.18 0,0 6.965,5.77 6.965,8.16 0,2.39 -15.398,11.369 -15.398,11.369 0,0 1.533,-1.933 3.482,-4.268 2.691,-3.226 6.043,-7.35 6.043,-9.39 0,-2.834 -5.292,-3.722 -6.942,-9.617 0,0 -1.436,2.205 -2.833,5.259 -1.475,3.22 -2.914,7.346 -2.914,9.332 l 2.686,18.733 -7.442,-0.865 c -0.677,0.552 -13.787,12.927 -13.682,32.3 z" /><polygon
         style="fill:#d69f0f"
         id="polygon13"
         points="140.347,191.516 136.068,190.879 138.799,183.777 " /><path
         style="fill:#d69f0f"
         inkscape:connector-curvature="0"
         id="path15"
         d="m 81.167,127.51 43.248,-14.932 21.941,12.838 0.183,2.002 c 0,0 -0.825,-0.717 -2.248,-1.496 -2.288,-1.254 -6.082,-2.806 -10.18,-2.806 -2.481,0.011 -4.931,1.398 -6.715,3.051 -2.129,1.971 -3.403,4.188 -3.403,4.188 0,0 -2.766,-6.988 -15.262,-6.988 -11.745,0 -27.564,4.143 -27.564,4.143 z" /><path
         style="fill:#d69f0f"
         inkscape:connector-curvature="0"
         id="path17"
         d="m 69.012,120.499 2.117,6.578 57.2,-22.99 22.58,19.735 -0.526,-8.749 c -0.277,0.111 -0.593,0.19 -0.931,0.19 -2.412,0 -7.01,-3.05 -7.01,-3.05 l 0.864,-0.728 c 0,0 3.142,1.092 4.416,1.092 0.673,0 1.678,-0.279 2.478,-0.542 l -0.52,-8.653 -24.753,-34.583 -5.521,1.988 c 0,0 -12.542,-5.053 -23.877,-5.053 C 76.735,65.734 54.99,84.08 54.99,103.2 L 67.008,104.019 99.922,79.3 66.735,112.077 c 0,0 -2.595,-5.736 -7.375,-5.736 -2.066,0.052 -6.999,3.428 -6.999,11.335 0,6.874 3.266,10.607 3.266,10.607 l -3.801,5.281 c 1.604,32.222 1.12,47.357 -9.992,44.066 l 16.161,7.876 c 0,0 -0.318,-20.759 -0.318,-26.586 0,-10.668 0.872,-11.785 2.185,-11.745 3.566,0 4.53,18.66 4.945,30.644 0.24,6.94 0.495,12.308 0.495,12.308 0,0 12.952,14.227 35.987,16.229 C 81.315,192.272 83.59,175.22 85.082,163.701 c 0.686,-5.298 1.416,-10.823 2.731,-16.89 -18.346,-0.182 -18.483,-10.379 -18.483,-13.02 0,-2.641 0.393,-3.995 0.393,-3.995 -0.802,0.558 -4.535,3.472 -9.292,2.061 8.603,-2.799 8.581,-11.358 8.581,-11.358 z M 78.958,90.942 65.37,99.99 57.825,99.751 c 0,-1.754 0.854,-16.833 21.441,-26.495 -1.711,1.145 -3.193,2.488 -4.711,3.721 -3.723,3.025 -9.321,8.467 -9.321,11.301 -10e-4,3.484 4.54,4.782 13.724,2.664 z m 62.243,5.896 c 0.171,0 4.609,3.87 4.609,9.458 0,1.502 0.865,2.777 0.865,2.777 l -0.273,0.592 c 0,0 -1.047,-0.592 -1.411,-0.592 -0.364,0 -0.865,0.456 -2.049,0.456 -1.184,0 -3.505,-1.457 -6.009,-4.279 0,0 0.318,-0.228 0.729,-0.228 0.409,0 2.367,1.958 3.688,1.958 1.321,0 0.956,-0.729 2.776,-0.592 0,0 -0.455,-1.366 -0.455,-2.322 0,-3.989 -2.595,-6.26 -2.595,-6.692 0,-0.457 0.125,-0.536 0.125,-0.536 z m -8.775,0.008 c 0.133,0 2.14,2.222 3.312,2.222 0.668,0 0.943,-0.307 1.639,-0.307 0,0 -0.063,-0.263 -0.051,-0.598 0.066,-1.088 0.38,-1.546 0.409,-2.373 0.037,-1.037 -1.134,-3.967 -1.166,-4.063 -0.131,-0.389 0.049,-1.428 0.205,-1.251 0.592,0.71 2.913,4.416 2.913,6.919 0,1.187 -0.101,1.786 -0.137,2.8 -0.036,1.014 0.541,2.031 0.541,2.031 l -0.196,0.529 c 0,0 -0.811,-1.126 -2.177,-1.126 -1.477,0 -2.065,-0.308 -2.919,-1.093 -0.854,-0.785 -2.766,-3.338 -2.76,-3.482 0.001,-0.097 0.091,-0.208 0.387,-0.208 z M 120.647,78.958 c 0,0 -1.604,1.707 -1.604,6.453 0,7.294 3.845,11.848 8.16,11.848 0.648,0 2.901,-0.444 2.901,-0.444 0,0 -1.16,2.971 -4.745,2.971 -4.712,0 -9.765,-6.419 -9.765,-11.916 0,-6.419 5.053,-8.912 5.053,-8.912 z m -17.641,18.631 c 0,-0.879 -0.057,-1.056 -0.057,-1.81 0,-0.754 0.624,-2.406 1.001,-3.164 0.488,-0.979 3.409,-4.065 4.166,-4.598 0.199,-0.131 0.331,0.831 0.153,1.149 -0.044,0.079 -0.556,0.6 -1.041,1.366 -0.598,0.943 -1.187,2.225 -1.187,3.124 0,0.717 0.401,0.999 0.435,1.946 0,0.29 -0.159,0.563 -0.159,0.563 0.927,0 1.329,0.706 2.481,0.706 2.97,0 4.905,-1.798 5.463,-1.798 0.159,0 0.523,0.085 0.523,0.319 0,0.125 -1.366,1.178 -3.187,2.219 -1.565,0.896 -3.475,1.81 -5.053,1.81 -2.014,0 -1.81,-0.387 -2.572,-0.387 -0.763,0 -1.753,0.751 -1.753,0.751 l -0.541,-0.094 c 0.003,0 1.328,-1.223 1.328,-2.102 z m -9.457,6.976 c 0.133,-0.302 0.277,-2.165 0.615,-3.46 0.268,-1.027 0.692,-1.45 1.07,-2.208 0.941,-1.89 4.595,-4.421 5.429,-5.008 0.199,-0.131 0.257,0.331 0.08,0.649 -0.122,0.219 -2.014,1.723 -3.073,3.813 -0.481,0.95 -0.649,2.05 -0.649,3.152 0,0.842 -0.182,1.514 -0.182,1.514 1.357,0 2.347,1.229 3.255,1.229 2.97,0 6.203,-1.815 6.76,-1.815 0.159,0 0.824,0.134 0.824,0.367 0,0.233 -6.014,3.917 -9.428,3.917 -2.014,0 -3.312,-0.774 -4.074,-0.774 -0.762,0 -1.252,0.479 -1.252,0.479 l -0.341,-0.456 c -0.001,0.001 0.728,-0.857 0.966,-1.399 z m -10.459,3.944 c 0.324,-0.495 1.105,-3.523 2.23,-5.07 0.456,-0.626 3.105,-2.496 3.278,-2.618 0.193,-0.137 0.546,0.216 0.319,0.5 -0.228,0.285 -0.945,0.763 -1.514,1.958 -0.569,1.195 -0.626,2.549 -0.865,3.107 -0.239,0.558 -0.614,1.013 -0.614,1.013 2.549,0 1.806,2.492 6.829,2.492 0.956,0 5.77,-0.751 5.77,-0.751 l 1.502,0.99 c 0,0 -4.951,2.288 -9.56,2.288 -4.165,0 -5.531,-2.151 -7.853,-2.117 -0.307,0 -1.639,0.273 -1.639,0.273 l -0.205,-0.239 c 0,0 1.998,-1.331 2.322,-1.826 z m -12.348,5.594 c 0,0 1.155,-0.305 1.434,-1.729 0.706,-3.608 2.754,-3.71 3.881,-4.769 0.245,-0.211 0.412,0.109 0.273,0.256 -0.324,0.341 -0.546,1.007 -0.546,1.246 0,0.239 0.188,0.973 0.188,1.332 0,0.99 -1.11,1.878 -1.11,1.878 2.62,0 2.022,1.878 5.873,1.878 0.922,0 1.229,-0.137 1.673,-0.137 0.444,0 1.537,0.239 2.697,1.417 -2.697,0.341 -3.636,1.246 -6.589,1.246 -4.882,0 -5.019,-2.134 -7.238,-2.134 -0.222,0 -0.26,0.141 -0.474,0.141 -0.214,0 -0.38,-0.077 -0.38,-0.312 -0.001,-0.235 0.318,-0.313 0.318,-0.313 z m -10.516,15.546 c -3.665,0 -5.372,-5.6 -5.372,-5.6 0,0 1.662,2.648 3.884,2.648 1.596,0 5.95,-3.635 5.95,-9.386 0,-3.574 -0.82,-5.099 -0.82,-5.099 0,0 3.187,3.873 3.187,7.307 -0.001,6.423 -4.614,10.13 -6.829,10.13 z" /><path
         style="fill:#d69f0f"
         inkscape:connector-curvature="0"
         id="path19"
         d="m 57.221,77.797 1.116,5.076 C 60.499,79.39 73.701,61.317 99.035,61.443 l 3.63,-3.796 -18.995,-0.005 -16.195,12.985 14.312,-16.792 23.188,-0.003 0,-6.695 -25.248,0 -22.506,30.66 z" /><path
         style="fill:#d69f0f"
         inkscape:connector-curvature="0"
         id="path21"
         d="m 158.003,103.129 -0.034,24.744 c 11.164,9.189 18.023,22.677 18.023,37.996 0,21.209 -12.873,38.798 -32.454,46.388 -4.182,6.94 -7.744,16.579 -4.603,22.902 34.28,-7.13 57.952,-34.812 57.952,-69.273 0.001,-27.499 -15.393,-50.809 -38.884,-62.757 z m 30.019,44.208 c 0,0 0.36,0.938 0.506,2.357 0.163,1.582 0.369,3.413 -0.67,5.325 -0.239,0.44 -0.743,0.85 -1.004,1.329 -0.794,1.46 -0.562,2.552 -0.562,2.552 0,0 -0.431,-1.316 -1.048,-1.755 -0.616,-0.438 -0.916,-0.382 -2.5,-1.709 -2.005,-1.68 -2.811,-6.482 -2.811,-6.482 1.646,0.117 2.876,3.001 4.834,2.725 1.599,-0.226 1.705,-3.815 3.255,-4.342 z m -3.9,-9.811 c 0,0 0.507,0.869 0.879,2.245 0.415,1.536 0.913,3.31 0.194,5.364 -0.165,0.473 -0.597,0.958 -0.777,1.474 -0.549,1.568 -0.144,2.608 -0.144,2.608 0,0 -0.637,-1.23 -1.316,-1.564 -0.679,-0.333 -0.966,-0.229 -2.742,-1.284 -2.249,-1.336 -3.816,-5.947 -3.816,-5.947 1.644,-0.148 3.322,2.501 5.209,1.913 1.54,-0.48 1.068,-4.039 2.513,-4.809 z M 158.58,115.127 c 0,0 9.674,3.505 9.674,6.237 0,1.047 -0.638,1.593 -1.548,1.593 -3.096,0 -8.126,-7.83 -8.126,-7.83 z m 6.777,10.556 c 1.502,-0.683 3.961,1.264 5.548,0.085 1.297,-0.961 -0.324,-4.166 0.785,-5.369 0,0 0.766,0.653 1.571,1.829 0.898,1.313 1.954,2.823 1.954,4.999 0,0.501 -0.247,1.102 -0.247,1.647 0,1.662 0.726,2.51 0.726,2.51 0,0 -1.008,-0.95 -1.759,-1.041 -0.751,-0.092 -0.987,0.102 -3.013,-0.308 -2.564,-0.517 -5.565,-4.352 -5.565,-4.352 z m 6.194,6.851 c 1.598,-0.412 3.683,1.931 5.45,1.045 1.442,-0.723 0.401,-4.158 1.702,-5.151 0,0 0.642,0.775 1.23,2.073 0.658,1.448 1.437,3.118 1.06,5.262 -0.087,0.493 -0.434,1.042 -0.528,1.58 -0.288,1.637 0.279,2.597 0.279,2.597 0,0 -0.827,-1.109 -1.551,-1.33 -0.725,-0.219 -0.99,-0.069 -2.915,-0.824 -2.435,-0.955 -4.727,-5.252 -4.727,-5.252 z m -21.061,89.647 c -0.962,2.557 -11.25,2.434 -11.25,2.434 0,0 7.464,-5.56 10.361,-4.47 0.853,0.32 1.257,1.055 0.889,2.036 z m 8.093,-4.328 c -0.192,0.512 -0.172,1.16 -0.349,1.629 -0.766,2.038 -2.285,3.079 -3.589,3.991 -1.167,0.818 -2.113,1.16 -2.113,1.16 -0.615,-1.517 2.029,-3.945 1.154,-5.302 -1.071,-1.661 -4.058,-0.705 -5.224,-1.873 0,0 4.159,-2.533 6.741,-2.116 2.041,0.33 2.193,0.594 2.929,0.773 0.735,0.179 2.013,-0.356 2.013,-0.356 0,0 -0.978,0.539 -1.562,2.094 z m 9.362,-6.866 c -0.099,0.537 0.036,1.172 -0.054,1.665 -0.393,2.141 -1.703,3.435 -2.824,4.564 -1.004,1.012 -1.875,1.517 -1.875,1.517 -0.874,-1.385 1.297,-4.243 0.195,-5.423 -1.349,-1.445 -4.117,0.026 -5.472,-0.916 0,0 3.643,-3.231 6.259,-3.279 2.066,-0.037 2.264,0.195 3.019,0.241 0.756,0.046 1.917,-0.707 1.917,-0.707 0,0 -0.866,0.704 -1.165,2.338 z m 7.385,-6.314 c 0.015,2.177 -1.031,3.693 -1.921,5.012 -0.798,1.183 -1.559,1.84 -1.559,1.84 -1.118,-1.196 0.481,-4.41 -0.821,-5.363 -1.595,-1.168 -4.04,0.795 -5.547,0.122 0,0 2.976,-3.854 5.536,-4.39 2.023,-0.424 2.26,-0.231 3.011,-0.327 0.751,-0.097 1.752,-1.054 1.752,-1.054 0,0 -0.72,0.854 -0.709,2.515 0.003,0.545 0.255,1.144 0.258,1.645 z m 4.861,-3.591 c -0.602,1.293 -1.249,2.063 -1.249,2.063 -1.292,-1.005 -0.22,-4.432 -1.656,-5.167 -1.76,-0.901 -3.865,1.422 -5.459,0.995 0,0 2.331,-4.275 4.775,-5.208 1.931,-0.736 2.195,-0.585 2.922,-0.798 0.726,-0.213 1.563,-1.316 1.563,-1.316 0,0 -0.576,0.956 -0.304,2.595 0.09,0.539 0.433,1.091 0.515,1.585 0.358,2.146 -0.436,3.809 -1.107,5.251 z m 5.227,-9.863 c -0.341,1.385 -0.828,2.265 -0.828,2.265 -1.462,-0.737 -1.068,-4.306 -2.619,-4.752 -1.9,-0.546 -3.52,2.139 -5.166,2.026 0,0 1.465,-4.644 3.685,-6.029 1.753,-1.094 2.042,-0.996 2.714,-1.345 0.671,-0.349 1.28,-1.592 1.28,-1.592 0,0 -0.382,1.049 0.202,2.604 0.191,0.512 0.634,0.986 0.81,1.456 0.763,2.039 0.303,3.823 -0.078,5.367 z m 3.437,-9.935 c -0.119,1.421 -0.462,2.366 -0.462,2.366 -1.56,-0.498 -1.733,-4.084 -3.335,-4.279 -1.963,-0.24 -3.139,2.667 -4.782,2.815 0,0 0.715,-4.817 2.688,-6.535 1.56,-1.356 1.86,-1.305 2.468,-1.755 0.608,-0.451 1.015,-1.774 1.015,-1.774 0,0 -0.212,1.095 0.609,2.54 0.27,0.475 0.781,0.875 1.029,1.31 1.075,1.892 0.902,3.726 0.77,5.312 z m -2.415,-11.642 c -1.999,0 -3.619,-1.654 -3.619,-3.696 0,-2.041 1.62,-3.695 3.619,-3.695 1.999,0 3.619,1.654 3.619,3.695 0,2.041 -1.62,3.696 -3.619,3.696 z" /><path
         style="fill:#ffffff"
         inkscape:connector-curvature="0"
         id="path23"
         d="m 140.655,134.782 3.96,1.775 -0.58,-6.316 c 0,0 -7.38,-7.024 -13.281,-1.98 -1.878,1.604 -7.648,8.866 -7.648,8.866 -2.753,-5.588 -9.002,-9.11 -17.583,-9.311 -4.101,-0.095 -8.979,0.604 -14.75,1.97 -7.128,1.685 -12.451,3.778 -12.451,3.778 0,0 -1.138,1.297 -1.138,3.323 0,6.327 10.539,6.373 12.223,6.373 1.684,0 4.302,-0.114 4.302,-0.114 l -2.595,11.609 9.856,1.377 c 0,0 -7.693,16.172 -7.693,29.056 0,0.917 0.548,3.475 1.798,4.734 1.046,1.127 5.442,5.484 9.014,8.672 1.047,0.935 2.13,1.873 3.039,2.578 0.692,0.537 1.286,0.919 1.673,1.178 0.815,0.546 1.607,0.819 2.23,0.819 5.381,0 8.945,-0.799 11.381,-1.502 1.211,-0.35 3.574,-1.385 4.16,-2.015 0.676,-0.726 0.894,-2.555 0.894,-2.856 0,-2.186 -0.592,-5.873 -8.923,-5.873 -8.331,0 -11.757,3.096 -11.757,3.096 l 1.844,-6.009 c 0,0 0.457,-0.754 2.117,-1.332 1.406,-0.489 3.673,-0.819 7.307,-0.819 3.141,0 8.706,0.648 8.706,0.648 l -0.409,-5.36 -3.347,0.615 -7.716,-1.195 -16.685,0.479 -0.774,-0.66 20.327,-3.779 4.473,0.99 3.688,-0.888 -1.98,-1.912 -2.22,0.956 -0.409,-4.541 -12.224,-2.014 9.595,-3.449 6.077,2.391 4.609,-2.22 -5.054,-19.734 1.946,-6.009 13.998,-5.395 z m -23.343,12.576 -8.08,-1.093 4.279,-3.392 -5.472,-1.545 c 0,0 -1.553,2.638 -4.336,2.638 -3.705,0 -4.806,-4.098 -4.806,-4.098 l -19.461,-2.526 22.62,-3.705 18.442,7.461 -3.186,6.26 z" /><path
         style="fill:#ffffff"
         inkscape:connector-curvature="0"
         id="path25"
         d="m 135.909,177.461 -1.127,-2.63 -3.414,-3.892 4.473,-3.722 -2.68,-5.65 -3.057,-9.851 1.844,-6.658 c 0,0 1.195,1.912 3.073,1.912 2.834,0 3.722,-4.131 3.722,-4.131 l 3.79,-0.763 -1.002,3.551 c 0,0 3.335,6.453 3.335,8.832 l -4.04,6.714 -4.917,16.288 z" /><polygon
         style="fill:#ffffff"
         id="polygon27"
         points="105.112,213.618 115.91,221.121 118.769,211.262 109.243,209.931 " /></g></g></svg>