<?xml version="1.0" encoding="UTF-8" standalone="no"?>
<svg
   xmlns:dc="http://purl.org/dc/elements/1.1/"
   xmlns:cc="http://creativecommons.org/ns#"
   xmlns:rdf="http://www.w3.org/1999/02/22-rdf-syntax-ns#"
   xmlns:svg="http://www.w3.org/2000/svg"
   xmlns="http://www.w3.org/2000/svg"
   xmlns:sodipodi="http://sodipodi.sourceforge.net/DTD/sodipodi-0.dtd"
   xmlns:inkscape="http://www.inkscape.org/namespaces/inkscape"
   version="1.0"
   width="64pt"
   height="64pt"
   viewBox="0 0 64 64"
   preserveAspectRatio="xMidYMid meet"
   id="svg3336"
   inkscape:version="0.91 r13725"
   sodipodi:docname="sliders.svg">
  <defs
     id="defs3354" />
  <sodipodi:namedview
     pagecolor="#ffffff"
     bordercolor="#666666"
     borderopacity="1"
     objecttolerance="10"
     gridtolerance="10"
     guidetolerance="10"
     inkscape:pageopacity="0"
     inkscape:pageshadow="2"
     inkscape:window-width="1920"
     inkscape:window-height="1017"
     id="namedview3352"
     showgrid="false"
     inkscape:zoom="1.325"
     inkscape:cx="338.78938"
     inkscape:cy="141.8325"
     inkscape:window-x="1912"
     inkscape:window-y="-8"
     inkscape:window-maximized="1"
     inkscape:current-layer="g3340" />
  <metadata
     id="metadata3338">
Created by potrace 1.13, written by Peter Selinger 2001-2015
<rdf:RDF>
  <cc:Work
     rdf:about="">
    <dc:format>image/svg+xml</dc:format>
    <dc:type
       rdf:resource="http://purl.org/dc/dcmitype/StillImage" />
    <dc:title />
  </cc:Work>
</rdf:RDF>
</metadata>
  <g
     transform="matrix(0.1,0,0,-0.1,0,64)"
     id="g3340"
     style="fill:#000000;stroke:none">
    <path
       d="m 150.32625,502.65263 c -19.60464,-9.56324 -37.29662,-27.73339 -42.5564,-44.46906 -2.86897,-8.12874 -7.65059,-9.08507 -43.034563,-9.08507 -35.862137,0 -41.121913,-0.95632 -45.425371,-10.0414 -4.303457,-7.65058 -3.82529,-11.95404 2.868972,-19.12647 6.694262,-7.65059 14.823018,-9.08507 44.469048,-9.08507 l 36.340284,0 9.56325,-17.21382 c 4.78161,-9.56323 18.17014,-22.47361 29.64602,-29.16787 37.29662,-21.51729 79.37486,-10.51956 105.67376,27.73338 21.99544,32.03684 7.17243,88.93809 -27.73338,107.10824 -22.95176,11.95404 -48.29434,12.91037 -69.81162,3.34714 z m 51.64147,-34.90582 c 11.95404,-6.2161 23.90809,-34.42765 19.60463,-45.90354 -6.2161,-17.21382 -21.99544,-30.12418 -37.77477,-30.12418 -21.99545,0 -30.1242,4.30345 -37.77479,19.60463 -10.51956,20.0828 -8.60692,32.03685 6.69426,47.81618 14.82302,14.82302 32.03684,17.69199 49.25067,8.60691 z"
       id="path3344"
       inkscape:connector-curvature="0"
       style="fill:#ffffff" />
    <path
       d="m 299.99088,445.75137 c -6.69426,-6.2161 -2.86897,-25.34257 5.73794,-30.12419 5.73795,-2.86898 62.16104,-4.78162 150.1428,-4.78162 129.10369,0 142.01405,0.95633 151.57729,8.60692 9.08508,7.65058 10.0414,10.51956 5.25979,19.12646 -5.73795,10.51956 -6.21612,10.51956 -157.7934,10.51956 -83.67831,0 -153.48993,-1.43449 -154.92442,-3.34713 z"
       id="path3346"
       inkscape:connector-curvature="0"
       style="fill:#ffffff" />
    <path
       d="m 310.51044,275.52577 c -9.08507,-5.73794 -20.56095,-18.6483 -25.82074,-28.68971 l -9.56323,-17.69198 -122.88757,0 c -105.195603,0 -123.84391,-0.95632 -130.060012,-7.65059 -4.303457,-3.82529 -7.650588,-9.08507 -7.650588,-11.47588 0,-2.39081 3.347131,-7.65059 7.650588,-11.47588 6.216102,-6.69426 24.864409,-7.65059 130.060012,-7.65059 l 122.88757,0 9.56323,-17.69199 c 27.73339,-51.64147 97.06685,-54.03228 133.40715,-4.78161 7.65059,10.04139 10.04139,20.56095 10.04139,41.60007 0,31.55867 -8.60691,47.33801 -35.86213,65.98633 -21.99544,14.82301 -59.29206,14.82301 -81.76567,-0.47817 z m 59.29206,-28.21154 c 15.77935,-8.12875 21.99545,-18.64831 22.47361,-37.77478 0,-36.3403 -45.90353,-54.03229 -69.81162,-26.2989 -29.64603,33.94949 8.12874,85.1128 47.33801,64.07368 z"
       id="path3348"
       inkscape:connector-curvature="0"
       style="fill:#ffffff" />
    <path
       d="m 474.51994,223.40615 c -3.34714,-3.34714 -5.73795,-9.08508 -5.73795,-13.38854 0,-16.2575 10.51956,-19.12647 72.20243,-19.12647 49.25067,0 62.6392,1.43448 68.37713,7.65059 9.08508,8.60691 9.08508,9.56323 2.86897,21.51728 -4.78161,8.12875 -10.51956,9.08507 -68.37713,9.08507 -43.03455,0 -65.50816,-1.91265 -69.33345,-5.73793 z"
       id="path3350"
       inkscape:connector-curvature="0"
       style="fill:#ffffff" />
  </g>
</svg>
