<?xml version="1.0" encoding="UTF-8" standalone="no"?>
<svg
   xmlns:dc="http://purl.org/dc/elements/1.1/"
   xmlns:cc="http://creativecommons.org/ns#"
   xmlns:rdf="http://www.w3.org/1999/02/22-rdf-syntax-ns#"
   xmlns:svg="http://www.w3.org/2000/svg"
   xmlns="http://www.w3.org/2000/svg"
   xmlns:sodipodi="http://sodipodi.sourceforge.net/DTD/sodipodi-0.dtd"
   xmlns:inkscape="http://www.inkscape.org/namespaces/inkscape"
   version="1.0"
   width="1024.000000pt"
   height="1049.000000pt"
   viewBox="0 0 1024.000000 1049.000000"
   preserveAspectRatio="xMidYMid meet"
   id="svg2"
   inkscape:version="0.91 r13725"
   sodipodi:docname="vote-down.svg">
  <defs
     id="defs12" />
  <sodipodi:namedview
     pagecolor="#ffffff"
     bordercolor="#666666"
     borderopacity="1"
     objecttolerance="10"
     gridtolerance="10"
     guidetolerance="10"
     inkscape:pageopacity="0"
     inkscape:pageshadow="2"
     inkscape:window-width="1920"
     inkscape:window-height="1017"
     id="namedview10"
     showgrid="false"
     inkscape:zoom="0.17998093"
     inkscape:cx="-179.53127"
     inkscape:cy="655.62498"
     inkscape:window-x="1912"
     inkscape:window-y="-8"
     inkscape:window-maximized="1"
     inkscape:current-layer="svg2" />
  <metadata
     id="metadata4">
Created by potrace 1.13, written by Peter Selinger 2001-2015
<rdf:RDF>
  <cc:Work
     rdf:about="">
    <dc:format>image/svg+xml</dc:format>
    <dc:type
       rdf:resource="http://purl.org/dc/dcmitype/StillImage" />
    <dc:title />
  </cc:Work>
</rdf:RDF>
</metadata>
  <g
     transform="matrix(-0.1,0,0,0.1,1024.1981,0.09417298)"
     id="g6"
     style="fill:#9494ff;fill-opacity:1;stroke:none">
    <path
       d="M 2566,7546 C 1163,5927 14,4598 12,4592 c -3,-9 346,-12 1437,-12 l 1441,0 0,-2290 0,-2290 2230,0 2230,0 0,2290 0,2290 1440,0 c 792,0 1440,4 1440,8 0,4 -1139,1322 -2531,2927 -1392,1606 -2542,2932 -2555,2948 -12,15 -24,27 -26,26 -2,0 -1150,-1325 -2552,-2943 z"
       id="path8"
       style="fill:#9494ff;fill-opacity:1"
       inkscape:connector-curvature="0" />
  </g>
</svg>
